<svg width="21" height="22" viewBox="0 0 21 22" fill="none" xmlns="http://www.w3.org/2000/svg">
<path d="M2.33333 20C1.69167 20 1.14236 19.8042 0.685417 19.4125C0.228472 19.0208 0 18.55 0 18V6C0 5.45 0.228472 4.97917 0.685417 4.5875C1.14236 4.19583 1.69167 4 2.33333 4H4.66667C4.66667 2.9 5.12361 1.95833 6.0375 1.175C6.95139 0.391667 8.05 0 9.33333 0C10.6167 0 11.7153 0.391667 12.6292 1.175C13.5431 1.95833 14 2.9 14 4H16.3333C16.975 4 17.5243 4.19583 17.9812 4.5875C18.4382 4.97917 18.6667 5.45 18.6667 6V18C18.6667 18.55 18.4382 19.0208 17.9812 19.4125C17.5243 19.8042 16.975 20 16.3333 20H2.33333ZM2.33333 18H16.3333V6H14V8C14 8.28333 13.8882 8.52083 13.6646 8.7125C13.441 8.90417 13.1639 9 12.8333 9C12.5028 9 12.2257 8.90417 12.0021 8.7125C11.7785 8.52083 11.6667 8.28333 11.6667 8V6H7V8C7 8.28333 6.88819 8.52083 6.66458 8.7125C6.44097 8.90417 6.16389 9 5.83333 9C5.50278 9 5.22569 8.90417 5.00208 8.7125C4.77847 8.52083 4.66667 8.28333 4.66667 8V6H2.33333V18ZM7 4H11.6667C11.6667 3.45 11.4382 2.97917 10.9812 2.5875C10.5243 2.19583 9.975 2 9.33333 2C8.69167 2 8.14236 2.19583 7.68542 2.5875C7.22847 2.97917 7 3.45 7 4Z" fill="white"/>
<circle cx="16" cy="17" r="5" fill="#D747EF"/>
</svg>
